{"scene":0,"scenes":[{"nodes":[0]}],"asset":{"version":"2.0","generator":"https://github.com/mikedh/trimesh"},"accessors":[{"componentType":5125,"type":"SCALAR","bufferView":0,"count":36,"max":[7],"min":[0]},{"componentType":5126,"type":"VEC3","byteOffset":0,"bufferView":1,"count":8,"max":[-2.5,0.5,0.5],"min":[-3.5,-0.5,-0.5]},{"componentType":5121,"normalized":true,"type":"VEC4","byteOffset":0,"bufferView":2,"count":8,"max":[255,255,255,255],"min":[255,255,255,255]},{"componentType":5126,"type":"VEC3","byteOffset":0,"bufferView":3,"count":8,"max":[0.5,0.5,0.5],"min":[-0.5,-0.5,-0.5]},{"componentType":5126,"type":"VEC3","byteOffset":0,"bufferView":4,"count":8,"max":[3.5,0.5,0.5],"min":[2.5,-0.5,-0.5]}],"meshes":[{"name":"geometry_0","extras":{"shape":"box","extents":[1.0,1.0,1.0]},"primitives":[{"attributes":{"POSITION":1,"COLOR_0":2},"indices":0,"mode":4}]},{"name":"geometry_1","extras":{"shape":"box","extents":[1.0,1.0,1.0]},"primitives":[{"attributes":{"POSITION":3,"COLOR_0":2},"indices":0,"mode":4}]},{"name":"geometry_2","extras":{"shape":"box","extents":[1.0,1.0,1.0]},"primitives":[{"attributes":{"POSITION":4,"COLOR_0":2},"indices":0,"mode":4}]}],"nodes":[{"name":"world","children":[1,2,3]},{"name":"cube_red","mesh":0},{"name":"cube_green","mesh":1},{"name":"cube_blue","mesh":2}],"buffers":[{"uri":"gltf_buffer_0.bin","byteLength":144},{"uri":"gltf_buffer_1.bin","byteLength":96},{"uri":"gltf_buffer_2.bin","byteLength":32},{"uri":"gltf_buffer_3.bin","byteLength":96},{"uri":"gltf_buffer_4.bin","byteLength":96}],"bufferViews":[{"buffer":0,"byteOffset":0,"byteLength":144},{"buffer":1,"byteOffset":0,"byteLength":96},{"buffer":2,"byteOffset":0,"byteLength":32},{"buffer":3,"byteOffset":0,"byteLength":96},{"buffer":4,"byteOffset":0,"byteLength":96}]}